<?xml version="1.0" encoding="utf-8"?>
<!-- Generator: Adobe Illustrator 19.0.0, SVG Export Plug-In . SVG Version: 6.00 Build 0)  -->
<svg version="1.1" id="Layer_1" xmlns="http://www.w3.org/2000/svg" xmlns:xlink="http://www.w3.org/1999/xlink" x="0px" y="0px"
	 viewBox="0 0 400 400" style="enable-background:new 0 0 400 400;" xml:space="preserve">
<style type="text/css">
	.st0{stroke:#FFFFFF;stroke-miterlimit:10;}
	.st1{fill:#FFFFFF;stroke:#FFFAFA;stroke-miterlimit:10;}
	.st2{fill:#F7F5F5;stroke:#FFFFFF;stroke-miterlimit:10;}
</style>
<image style="display:none;overflow:visible;" width="880" height="633" id="XMLID_2_" xlink:href="4F5F3087.jpg"  transform="matrix(1 0 0 1 -240 0)">
</image>
<circle id="XMLID_3_" class="st0" cx="201.3" cy="189.8" r="175.3"/>
<polygon id="XMLID_1_" class="st1" points="189.9,56.8 81.4,122.6 182,184.1 181.5,304 81.5,244.5 81.5,253 189.5,316.5 189.5,179 
	97.5,124.5 181,71 181.5,114.5 190,114.5 "/>
<polygon id="XMLID_4_" class="st2" points="199.5,52 199.5,61 306,123 206.5,175.5 206.8,184 305.5,131 305.5,252 214.5,304 
	214.5,235.5 206,235.5 206.3,316.5 314.5,256 314.5,119 "/>
</svg>
